<svg xmlns="http://www.w3.org/2000/svg" height="1200" width="1600" version="1.1" xmlnsXlink="http://www.w3.org/1999/xlink" xmlnsSvgjs="http://svgjs.com/svgjs"><rect fill="#242222" width="1600" height="1200"></rect><g><path d="M570.1 672.6V763.5C570.1 776.5 559.6 787 546.6 787H531.3C518.3 787 507.8 797.5 507.8 810.5V846.1C507.8 859.1 518.3 869.6 531.3 869.6H900.7C913.7 869.6 924.2 880.1 924.2 893.1V922.8C924.2 935.8 934.7 946.3 947.7 946.3H966.5C979.5 946.3 990 935.8 990 922.8V857.5C990 844.5 1000.5 834 1013.5 834H1316.5C1329.5 834 1340 823.5 1340 810.5V703.9" stroke="#1f2223" stroke-width="4" stroke-linecap="round" stroke-linejoin="round" opacity="1" fill="none"></path></g><g><path d="M318.63 289.56L303 265.67 327.27 278.48 335.61 235.55 344.58 281.36 383 262.55 354.99 295.5 389.91 329.65 347.17 314.11 343.91 361.84 328.95 318.53 291.15 340.4 317.58 304.09 279.35 291.91 318.63 289.56Z" fill="#a0a0a0" opacity="1" stroke-width="4" stroke="none"></path></g><g><path d="M707.21 418.08L645.1 398.65V367.99H624.06L515.35 464.97 624.06 574.38H645.1V543.72L707.21 524.29V418.08Z" fill="#2c2c2c" opacity="1" stroke-width="4" stroke="none"></path><path d="M652.21 400.85L645.1 398.65V543.72L669.44 536.11 652.21 400.85Z" fill="#000000" opacity="0.3" stroke-width="4" stroke="none"></path><path d="M581.98 553.34H474.77V626.48H581.98V553.34Z" fill="#e9f0f3" opacity="1" stroke-width="4" stroke="none"></path><path d="M552.92 553.34H445.72V626.48H552.92V553.34Z" fill="#2c2c2c" opacity="1" stroke-width="4" stroke="none"></path><path d="M604.02 612.45H709.22V681.58H604.02L538.69 650.52 604.02 612.45Z" fill="#2c2c2c" opacity="1" stroke-width="4" stroke="none"></path><path d="M604.02 612.45H354.55V681.58H604.02V612.45Z" fill="#78c7e0" opacity="1" stroke-width="4" stroke="none"></path><path d="M624.06 367.99H374.58V574.38H624.06V367.99Z" fill="#78c7e0" opacity="1" stroke-width="4" stroke="none"></path><path d="M594 398.05H404.64V544.32H594V398.05Z" fill="#e9f0f3" opacity="1" stroke-width="4" stroke="none"></path><path d="M588.99 627.48H502.83V645.51H588.99V627.48Z" fill="#000000" opacity="1" stroke-width="4" stroke="none"></path><path d="M645.1 398.65V543.72" stroke="#000000" stroke-width="4" stroke-linecap="round" stroke-linejoin="round" opacity="1" fill="none"></path><path d="M431.69 427.1H499.82" stroke="#78c7e0" stroke-width="4" stroke-linecap="round" stroke-linejoin="round" opacity="1" fill="none"></path><path d="M431.69 447.14H463.75" stroke="#78c7e0" stroke-width="4" stroke-linecap="round" stroke-linejoin="round" opacity="1" fill="none"></path><path d="M431.69 477.2H481.79" stroke="#78c7e0" stroke-width="4" stroke-linecap="round" stroke-linejoin="round" opacity="1" fill="none"></path></g><g><path d="M1415.57 248.64L1457.78 670.72C1461.03 703.28 1431.09 729.73 1390.7 729.84L781.22 731.43C740.98 731.53 705.76 705.25 702.51 672.69L660.3 250.61C657.04 218.05 686.99 191.6 727.23 191.5L1336.7 189.91C1376.94 189.8 1412.31 216.08 1415.57 248.64Z" fill="#ffffff" opacity="1" stroke-width="4" stroke="none"></path></g><g><path d="M1419.65 731.26H1185.47L1065.47 671.11 979.26 731.26H852.45L838.51 717.88 788.19 731.26H755.91C730.04 731.26 706.79 710.24 704.08 684.19L657.26 237.08C654.56 211.13 673.3 190.01 699.27 190.01H804.73L890.14 244.42 946.28 190.01H1185.27L1322.31 236.08C1347.77 236.08 1411.43 210.43 1414.74 235.97 1414.74 236.38 1414.84 236.68 1414.84 237.08L1418.95 276.81 1379.65 343.1 1428.87 370.86 1461.65 684.19C1464.36 710.24 1445.51 731.26 1419.65 731.26Z" fill="#ffffff" opacity="1" stroke-width="4" stroke="none"></path><path d="M749.59 606.84L979.26 454.45 780.27 488.75C779.47 488.85 778.76 489.35 778.26 490.06L764.13 511.08 755.71 536.83 747.99 605.83C747.89 606.73 748.89 607.34 749.59 606.84Z" fill="#a0a0a0" opacity="1" stroke-width="4" stroke="none"></path><path d="M755.21 392.69L749.49 399.43 736.16 422.46 730.35 451.73C730.04 453.14 731.15 454.55 732.65 454.55L860.37 456.66 757.71 391.48C757.21 391.18 756.61 391.18 756.01 391.38 755.71 391.38 755.31 392.49 755.21 392.69Z" fill="#2c2c2c" opacity="1" stroke-width="4" stroke="none"></path><path d="M999.11 409.39L946.28 190.11H864.08L855.76 192.22 802.52 236.88 802.22 237.48C801.82 238.19 802.02 238.99 802.62 239.5L999.11 409.39Z" fill="#2c2c2c" opacity="1" stroke-width="4" stroke="none"></path><path d="M1414.74 235.97C1411.43 210.53 1388.47 190.11 1363.01 190.11L1185.27 190.01 1117.6 394.6 1414.74 235.97Z" fill="#2c2c2c" opacity="1" stroke-width="4" stroke="none"></path><path d="M1428.87 370.86L1418.95 276.81 1265.77 385.24 1428.87 370.86Z" fill="#2c2c2c" opacity="1" stroke-width="4" stroke="none"></path><path d="M1149.28 481.61L1373.13 656.12C1373.33 656.22 1373.53 656.12 1373.63 655.92L1390.48 545.58C1390.48 545.58 1390.48 545.58 1390.48 545.48L1387.07 511.88C1387.07 511.78 1386.97 511.68 1386.77 511.58L1149.48 481C1149.18 481 1148.98 481.4 1149.28 481.61Z" fill="#a0a0a0" opacity="1" stroke-width="4" stroke="none"></path><path d="M788.19 731.26H852.45L888.74 667.19 788.19 731.26Z" fill="#2c2c2c" opacity="1" stroke-width="4" stroke="none"></path><path d="M979.26 731.26L1022.27 505.65 1185.47 731.26H979.26Z" fill="#2c2c2c" opacity="1" stroke-width="4" stroke="none"></path><path d="M907.58 538.14C921.21 538.14 932.24 527.06 932.24 513.39 932.24 499.73 921.21 488.65 907.58 488.65 893.96 488.65 882.92 499.73 882.92 513.39 882.92 527.06 893.96 538.14 907.58 538.14Z" fill="#818181" opacity="1" stroke-width="4" stroke="none"></path><path d="M778.56 489.55L736.66 524.05 747.99 606.03C748.09 606.53 748.79 606.53 748.89 606.13L779.17 489.95C779.17 489.65 778.87 489.35 778.56 489.55Z" fill="#979797" opacity="1" stroke-width="4" stroke="none"></path><path d="M802.02 238.19L804.73 190.01 864.08 190.11 803.73 239.09C803.02 239.7 802.02 239.09 802.02 238.19Z" fill="#000000" opacity="1" stroke-width="4" stroke="none"></path><path d="M730.55 453.24L719.62 430.51 755.91 391.28C756.01 391.08 756.31 391.28 756.21 391.48L732.75 453.24C732.35 454.25 730.95 454.25 730.55 453.24Z" fill="#818181" opacity="1" stroke-width="4" stroke="none"></path><path d="M1373.53 656.02L1407.32 618.6 1386.97 511.88C1386.97 511.78 1386.77 511.78 1386.77 511.88L1373.53 656.02Z" fill="#979797" opacity="1" stroke-width="4" stroke="none"></path></g><g><path d="M1098.8 1018.5L1096.9 983.9 1097 983.7C1100.2 980.2 1103 976.4 1105.3 972.3 1108.2 967.3 1110 959.5 1111.1 947.7V947.3C1111.6 941.4 1111.9 934.6 1112.1 925.9V925.7C1112.3 917.9 1112.3 909.7 1112.3 900.9 1112.4 877.8 1112.5 851.7 1115.1 826.9 1117.1 807.8 1124.7 783.7 1136.9 756.6L1139.7 755 1215.3 797.7 1215.4 805.7C1201.9 825.2 1194.8 839.7 1193.1 851.8 1191.5 862.9 1192.9 876.1 1194.4 891.4 1195.5 901.7 1196.6 913.4 1197 925.8V926C1197.1 930.8 1197.1 935.4 1197 939.9 1196.7 951.5 1195.9 963.4 1194.5 975.3V975.5C1192.5 993.7 1189.8 1008.3 1187.8 1017.7L1186.1 1020.3 1098.8 1018.5Z" fill="#eaa58b" opacity="1" stroke-width="4" stroke="none"></path><path d="M1333.9 1018.5L1311.6 985.2 1311.4 983.5C1314.1 978.7 1315.1 973.5 1314.1 968.1 1313.3 964.8 1312 961.7 1310.4 958.7L1310.3 958.5C1307.7 953.1 1303.7 946 1297.4 935.5L1297.3 935.3C1294.5 930.5 1291.4 925.5 1288.3 920.4 1275 898.4 1259.9 873.4 1251.9 854.7 1246.2 841.5 1243.2 825.4 1243 805.6L1244.5 804 1323.3 804.6 1324.1 805.5C1323.6 813.3 1324.7 819.5 1326.8 824.2 1331 833.4 1336.8 842.6 1343.6 853.2 1352.9 867.9 1364.4 886.1 1374.5 909.6L1374.6 909.8 1374.7 910C1377.1 915.6 1379.3 921.4 1381.4 927.2 1386.8 942.9 1390.8 959.1 1393.3 975.6V975.8C1395.5 989.9 1396.5 1003.4 1397 1017.7L1391.8 1022.9 1333.9 1018.8V1018.5 1018.5Z" fill="#eaa58b" opacity="1" stroke-width="4" stroke="none"></path><path d="M1316.1 600.7L1284.2 557.8 1334 530.8 1334.2 531.1C1341.1 543 1345.6 554.3 1347.6 564.7 1353.5 595.3 1323.7 613.8 1323.4 614L1323.2 614.1 1316.1 600.7Z" fill="#eaa58b" opacity="1" stroke-width="4" stroke="none"></path><path d="M1318.5 601.3L1317.3 599.8 1316.4 600 1307.8 602V601.9L1251 593.8 1228.1 618.8C1195.9 655.5 1168 695.2 1147.5 734.8 1143.8 741.9 1140.3 749.2 1137 756.4L1136.9 756.6 1215.4 805.7C1224.1 793.2 1234.3 780.3 1245.1 766.7 1243.6 780.2 1242.8 793.1 1243 805.4V805.6L1324.1 805.5V805.3C1324.9 791.8 1329.4 775.3 1334.1 757.8 1334.4 756.9 1334.7 755.8 1335 754.6 1342.3 728.4 1365.5 650.2 1318.5 601.3Z" fill="#6961ff" opacity="1" stroke-width="4" stroke="none"></path><path d="M1243 799.5C1242.9 790.9 1244.7 769.7 1245.1 766.7 1245.1 766.7 1282.8 720.7 1295 697.9 1295.9 696.3 1297.8 700.5 1298.9 704.1 1300.7 710.1 1298.7 717.5 1293.1 726.1 1279.1 747.5 1271.7 757.9 1265.2 767.1 1258.8 776.1 1253.3 783.8 1243.4 799.6L1243 800.2C1243 800.2 1243 799.7 1243 799.5Z" fill="#363539" opacity="0.3" stroke-width="4" stroke="none"></path><path d="M1245.1 766.7C1246.1 765.5 1247.4 763.5 1248.4 762.2 1266.6 739.4 1285.4 715.8 1296.8 694.6 1299.4 689.8 1301.7 684.8 1303.7 679.7" stroke="#363539" stroke-width="4" stroke-linecap="round" stroke-linejoin="round" opacity="1" fill="none"></path><path d="M1182.6 474.4C1180.6 475.5 1172.5 479.7 1164.1 479.7 1161.3 479.7 1158.5 479.2 1156 478.2 1143.9 473.1 1143 454.8 1143.6 444.2 1142.3 443.3 1137.3 439.7 1137 436.4 1137 435.4 1137.3 434.5 1138 433.8 1139.7 431.8 1143.1 429.8 1144 429.3 1144 424.6 1144.2 420.3 1144.5 416.6 1144.9 411.1 1156.9 407.2 1158.4 402.9 1162.5 392.6 1161.9 390.6 1187.4 389.4 1187.7 389.9 1190.5 393 1192.2 391.4 1203.1 381.2 1213.6 393.9 1218.3 409.8 1220.7 417.8 1236.8 447 1239.9 461V461.2L1185.8 484.4 1182.6 474.4Z" fill="#eaa58b" opacity="1" stroke-width="4" stroke="none"></path><path d="M1182.6 474.4C1182.6 474.4 1185.6 472.8 1188.6 470.8 1189.7 470.1 1191.1 470.1 1191.8 471.2 1192.1 471.6 1192.2 472.1 1192.2 472.6V482.5L1185.9 484.6 1182.6 474.4Z" fill="#222120" opacity="0.3" stroke-width="4" stroke="none"></path><path d="M1057.9 622.8L1118.8 596.9C1140.8 533 1155.6 510.9 1164.8 499.9 1164.8 499.8 1170.9 490.9 1184.3 485.6L1182.4 480.4 1239.8 460.8V461C1240.6 464.8 1241.2 467.6 1241.4 468.5 1244.2 468.2 1246.9 468 1249.7 468 1259.1 467.9 1268.5 469.6 1277.3 473.1L1277.5 473.2 1277.8 473.3C1281.7 474.9 1285.4 477 1288.8 479.5 1305.3 491.6 1322.6 511.4 1334 531.2L1334.1 531.4 1310.8 561 1318.5 601.3 1228.1 618.8 1197.1 586.6C1197 586.5 1196.8 586.5 1196.7 586.7 1194.3 591.9 1175.7 626.1 1152.8 644.2 1125.3 665.9 1079.6 678 1079.1 678.1L1065.8 676.3 1053.7 627.2 1057.9 622.8Z" fill="#abedd8" opacity="1" stroke-width="4" stroke="none"></path><path d="M1355.7 498.6C1348.9 482.2 1330 474.4 1313.6 481.2 1313.8 478.1 1313.6 475 1313.1 471.9 1310.2 456.4 1298.4 446.4 1282.9 446.4 1279.6 446.4 1276.3 446.9 1273.1 447.7 1270.9 421.9 1252.6 418 1241.9 418 1239.3 418 1236.7 418.2 1234.1 418.7 1230.9 402.5 1225.4 387.3 1209.5 381.1 1209.2 381 1209.2 380.5 1209.5 380.4 1221.5 375.4 1229.7 363.2 1228.6 349.2 1227.4 334.1 1215.1 321.9 1199.9 320.8 1181.8 319.5 1166.7 333.9 1166.7 351.7 1166.7 363.2 1173 373.2 1182.2 378.5 1182.6 378.7 1182.5 379.3 1182.1 379.3 1163.1 382.7 1151.1 392.7 1147.3 402.2 1145.7 406.7 1144.8 411.3 1144.5 416V416.4H1145C1150.2 416.2 1155.2 414.1 1159.2 410.7 1159.4 410.6 1159.6 410.7 1159.6 410.9 1159.6 414.5 1160.3 417 1161.8 418.6 1163 419.8 1164.7 420.5 1166.4 420.4 1168.9 420.3 1171.1 419.7 1173.3 418.6 1173.7 418.4 1174.1 418.7 1174 419.1 1172.8 425.4 1174.9 429.4 1177 431.7 1178.6 433.5 1180.5 434.8 1182.7 435.6H1182.9L1183 435.5C1183.1 435.5 1191.3 430 1199.3 430 1203.1 429.8 1206.8 431.4 1209.2 434.4 1211.1 436.7 1212 439.7 1211.6 442.7 1210.3 453.1 1199.9 460 1197.8 460.7 1197.8 460.7 1195.3 473 1202.7 482.1 1208.2 488.8 1217.6 492.2 1230.5 492.2 1232.1 492.2 1233.9 492.1 1235.7 492 1236 497.1 1237.3 502 1239.6 506.6 1243.2 513.4 1250.7 521.5 1266.7 521.5 1269.1 521.5 1271.6 521.3 1274 521 1281.1 520.2 1287.9 517.9 1294 514.3 1295.7 530.6 1309.5 543.1 1326 543 1330.2 543 1334.4 542.2 1338.3 540.5 1354.7 533.9 1362.5 515 1355.7 498.6Z" fill="#c65a42" opacity="1" stroke-width="4" stroke="none"></path><path d="M952.2 619.2L969.2 613.3 978.2 595.9C978.4 595.7 978.8 595.5 979 595.7L1030.7 653.1 1004 677.3 952.2 619.7C951.9 619.3 952.2 619.2 952.2 619.2Z" fill="#6961ff" opacity="1" stroke-width="4" stroke="none"></path><path d="M1021.3 691C1013.9 691 1010.6 689.2 1009.1 687.7 1008.4 687 1008 686.3 1007.8 685.4 1007.8 685.3 1007.7 685.2 1007.6 685.2 1007.2 685.2 1006.7 685.3 1006.3 685.3 996.5 685.3 994.9 677.4 994.8 676.2 991 675.5 988.4 674 987.1 671.7 985.3 668.6 986.4 665 986.7 664.2 981.8 662.4 978.9 660 977.9 656.9 977.2 654.6 977.5 652 978.8 649.9L978.9 649.8H979C983.3 650.6 987.7 650.9 992.1 650.9 1002.8 650.8 1013.9 649 1024.1 645.8L1014.1 634.8 1014.4 634.7C1014.7 634.6 1044.1 628.7 1057.9 622.8L1079.2 678.1 1079 678.2C1078.7 678.3 1051.7 687.2 1031 690.2 1027.8 690.7 1024.6 690.9 1021.3 691Z" fill="#eaa58b" opacity="1" stroke-width="4" stroke="none"></path><path d="M1196.9 586.4L1208.2 564.3" stroke="#020202" stroke-width="4" stroke-linecap="round" stroke-linejoin="round" opacity="1" fill="none"></path><path d="M1318.5 601.3L1310.8 561" stroke="#020202" stroke-width="4" stroke-linecap="round" stroke-linejoin="round" opacity="1" fill="none"></path><path d="M1313.6 481.2C1312.8 484.2 1311.9 487.2 1311.1 489.5" stroke="#222020" stroke-width="4" stroke-linecap="round" stroke-linejoin="round" opacity="1" fill="none"></path><path d="M1273.1 447.7C1274.1 456.7 1271 466 1271 466" stroke="#222020" stroke-width="4" stroke-linecap="round" stroke-linejoin="round" opacity="1" fill="none"></path><path d="M1235.7 492.2C1234.7 480.2 1241 469 1241 469" stroke="#222020" stroke-width="4" stroke-linecap="round" stroke-linejoin="round" opacity="1" fill="none"></path><path d="M1294 514.5C1293.4 509.8 1293.9 504.6 1295 500" stroke="#222020" stroke-width="4" stroke-linecap="round" stroke-linejoin="round" opacity="1" fill="none"></path><path d="M1313.2 573.7L1327 570.8" stroke="#222120" stroke-width="4" stroke-linecap="round" stroke-linejoin="round" opacity="1" fill="none"></path><path d="M1119 597L1128.6 613.9" stroke="#020202" stroke-width="4" stroke-linecap="round" stroke-linejoin="round" opacity="1" fill="none"></path><path d="M1151.6 451.3C1156.7 453 1159.7 449.1 1161.2 446.5" stroke="#222120" stroke-width="4" stroke-linecap="round" stroke-linejoin="round" opacity="1" fill="none"></path><path d="M1191 449L1198 443" stroke="#222120" stroke-width="4" stroke-linecap="round" stroke-linejoin="round" opacity="1" fill="none"></path><path d="M1318.5 601.3L1310.8 561 1309 550 1310.5 549.8C1314 549.8 1315.7 553.2 1317.1 558 1318.4 562.5 1321 571.9 1324.1 578 1327.8 585.5 1334.7 590.9 1342.8 592.8H1343.1L1343 593C1339.1 600.2 1333.5 606.5 1327 611.5 1323.5 606.4 1318.5 601.3 1318.5 601.3Z" fill="#222120" opacity="0.3" stroke-width="4" stroke="none"></path><path d="M1196.9 586.4L1205.1 570.4C1206 568.5 1207.1 567.1 1209.1 567.1 1211.2 567.1 1213.2 568.3 1214 570.3 1219.3 582.7 1232 604.7 1256.9 612.8V613.2L1228.1 618.8 1196.9 586.4Z" fill="#020202" opacity="0.3" stroke-width="4" stroke="none"></path><path d="M986.7 664.1C995.1 664.6 1003.6 664.6 1012 664" stroke="#222120" stroke-width="4" stroke-linecap="round" stroke-linejoin="round" opacity="1" fill="none"></path><path d="M994.8 676.2C1004 677 1017 676 1017 676" stroke="#222120" stroke-width="4" stroke-linecap="round" stroke-linejoin="round" opacity="1" fill="none"></path><path d="M1007.8 685.2C1014 686 1024 683.9 1024 683.9" stroke="#222120" stroke-width="4" stroke-linecap="round" stroke-linejoin="round" opacity="1" fill="none"></path><path d="M960 621C957.8 621 953.9 620.1 952.4 619.7 952.2 619.6 952 619.3 952.2 619.2L978.4 595.6C978.5 595.5 978.8 595.5 978.8 595.7 979.3 597.9 981.2 609.1 973.2 616.3 969.5 619.4 964.8 621.1 960 621Z" fill="#abedd8" opacity="1" stroke-width="4" stroke="none"></path><path d="M1397 1018.1V1017.7H1339.1C1333 992 1311.8 983.7 1311.6 983.6L1311.4 983.5 1311.3 983.7C1307 991.7 1298.7 998.7 1291.4 1004.9 1287.3 1008.5 1283.8 1012.9 1281.2 1017.7L1280.8 1018.5C1278.4 1023.6 1276.7 1029 1276 1034.6V1034.8H1397.1V1034.6C1397.1 1034.5 1397.3 1026.8 1397 1018.1Z" fill="#abedd8" opacity="1" stroke-width="4" stroke="none"></path><path d="M1122.8 1017.7C1113.9 992.1 1097.3 983.9 1097.1 983.8L1097 983.7 1096.9 983.8C1090.6 990.9 1083.3 996.2 1076.9 1000.9 1069.7 1006.2 1062.9 1011.2 1058.3 1017.7L1058.2 1017.9C1052.9 1024.9 1052.8 1034.5 1052.8 1034.6V1034.8L1184.2 1034.6C1184.2 1034.6 1185.8 1027.2 1187.7 1018.2L1187.8 1017.7H1122.8Z" fill="#abedd8" opacity="1" stroke-width="4" stroke="none"></path><path d="M1156.7 432.4C1158.08 432.4 1159.2 431.28 1159.2 429.9 1159.2 428.52 1158.08 427.4 1156.7 427.4 1155.32 427.4 1154.2 428.52 1154.2 429.9 1154.2 431.28 1155.32 432.4 1156.7 432.4Z" fill="#231f20" opacity="1" stroke-width="4" stroke="none"></path><path d="M1310.8 561L1309 550" stroke="#020202" stroke-width="4" stroke-linecap="round" stroke-linejoin="round" opacity="1" fill="none"></path></g><g><path d="M709.1 761H894.4V1032H709.1L684.9 906.6 709.1 761Z" fill="#abedd8" opacity="1" stroke-width="4" stroke="none"></path><path d="M709.1 761H605V1032H709.1V761Z" fill="#78c7e0" opacity="1" stroke-width="4" stroke="none"></path><path d="M688.5 790.3H625.6V817H688.5V790.3Z" fill="#2c2c2c" opacity="1" stroke-width="4" stroke="none"></path><path d="M657.6 975.7C660.91 975.7 663.6 973.01 663.6 969.7 663.6 966.39 660.91 963.7 657.6 963.7 654.29 963.7 651.6 966.39 651.6 969.7 651.6 973.01 654.29 975.7 657.6 975.7Z" fill="#252b2d" opacity="1" stroke-width="4" stroke="none"></path><path d="M657.6 999.5C660.91 999.5 663.6 996.81 663.6 993.5 663.6 990.19 660.91 987.5 657.6 987.5 654.29 987.5 651.6 990.19 651.6 993.5 651.6 996.81 654.29 999.5 657.6 999.5Z" fill="#252b2d" opacity="1" stroke-width="4" stroke="none"></path><path d="M672.8 834.9V849.6" stroke="#000000" stroke-width="4" stroke-linecap="round" stroke-linejoin="round" opacity="1" fill="none"></path><path d="M657 834.9V849.6" stroke="#000000" stroke-width="4" stroke-linecap="round" stroke-linejoin="round" opacity="1" fill="none"></path><path d="M641.3 834.9V849.6" stroke="#000000" stroke-width="4" stroke-linecap="round" stroke-linejoin="round" opacity="1" fill="none"></path><path d="M796 953H863.5" stroke="#1c1c1c" stroke-width="4" stroke-linecap="round" stroke-linejoin="round" opacity="1" fill="none"></path><path d="M796 975H863.5" stroke="#1c1c1c" stroke-width="4" stroke-linecap="round" stroke-linejoin="round" opacity="1" fill="none"></path><path d="M796 997H863.5" stroke="#1c1c1c" stroke-width="4" stroke-linecap="round" stroke-linejoin="round" opacity="1" fill="none"></path><path d="M657.6 946.3C666.27 946.3 673.3 939.27 673.3 930.6 673.3 921.93 666.27 914.9 657.6 914.9 648.93 914.9 641.9 921.93 641.9 930.6 641.9 939.27 648.93 946.3 657.6 946.3Z" fill="#2c2c2c" opacity="1" stroke-width="4" stroke="none"></path></g><g><path d="M1468.1 760.98H1462.24V753.92C1462.24 749.02 1458.25 745.04 1453.35 745.04H1439.29C1434.39 745.04 1430.41 749.02 1430.35 753.92V760.98H1424.65C1416.51 760.98 1409.91 767.59 1409.91 775.73V871.56C1409.91 879.71 1416.51 886.31 1424.65 886.31H1468.1C1476.24 886.31 1482.85 879.71 1482.85 871.56V775.73C1482.85 767.59 1476.24 760.98 1468.1 760.98Z" fill="#78c7e0" opacity="1" stroke-width="4" stroke="none"></path><path d="M1429.84 814.51H1462.86C1467.25 814.51 1470.83 818.09 1470.83 822.48V866.61C1470.83 870.99 1467.25 874.58 1462.86 874.58H1429.84C1425.45 874.58 1421.86 870.99 1421.86 866.61V822.48C1421.86 818.09 1425.45 814.51 1429.84 814.51Z" fill="#2c2c2c" opacity="1" stroke-width="4" stroke="none"></path><path d="M1430.35 760.98H1462.29" stroke="#46a2be" stroke-width="4" stroke-linecap="round" stroke-linejoin="round" opacity="1" fill="none"></path></g><g><path d="M471.57 690.1C469.67 690.2 467.87 689.5 466.47 688.2 465.37 686.8 464.77 685.1 463.91 685.51 459.37 686 453.27 687.3 447.17 687.1 441.67 687.1 436.17 686.3 430.77 684.9 430.27 685.2 427.67 686.4 423.47 688.4L421.87 687.8 414.67 636.9 416.57 636.1C434.97 634.6 453.17 633.9 469.57 633.9 492.78 633.9 517.98 635.7 518.98 640.6 519.38 641.9 519.18 643.3 518.38 644.4 516.38 646.9 509.98 648.1 494.08 648.8 494.68 650.3 497.18 658.1 491.28 662.4 492.48 664 492.98 665.9 492.88 667.8 492.68 670.2 491.28 672.5 488.78 674.7 489.88 676.4 490.08 678.4 489.38 680.3 488.48 682.9 485.48 686.6 476.58 689.3 474.88 689.8 473.27 690.1 471.57 690.1Z" fill="#c65a42" opacity="1" stroke-width="4" stroke="none"></path><path d="M297.66 970.12L295.26 964.82 295.16 964.62C296.16 955.32 297.76 945.92 299.66 936.42L303.96 923.62 382.17 925.12 386.17 936.52C384.17 942.62 382.97 948.72 382.17 955.02L359.67 999.43 297.66 970.12Z" fill="#c65a42" opacity="1" stroke-width="4" stroke="none"></path><path d="M292.67 1028.93V1028.73C292.57 1023.03 292.47 1017.53 292.47 1012.03L295.57 1008.43 409.68 1011.53 410.58 1011.93C410.78 1012.03 410.98 1012.13 411.08 1012.33 413.58 1017.23 415.18 1024.33 415.18 1028.73V1028.93H292.67Z" fill="#6961ff" opacity="1" stroke-width="4" stroke="none"></path><path d="M292.47 1012.03V1011.83C292.47 1005.13 292.77 998.63 292.97 992.33 293.07 989.73 293.27 987.12 293.37 984.72 293.77 977.82 295.17 964.62 295.17 964.62H295.37C327.27 966.02 348.28 983.12 352.78 987.12 352.98 987.22 353.18 987.12 353.18 986.92L350.28 968.52C349.78 965.12 350.68 961.62 352.98 959.02 355.18 956.42 358.38 955.02 361.78 955.02H381.88C381.98 955.02 382.08 955.12 382.08 955.32 381.98 955.92 381.88 957.22 381.88 957.52 381.78 959.42 381.58 961.12 381.58 962.82 381.68 983.22 390.68 991.43 399.48 999.43 402.98 1002.53 405.98 1005.73 406.98 1006.83 407.18 1007.03 407.38 1007.33 407.58 1007.53L410.58 1011.73C410.68 1011.93 410.58 1012.13 410.38 1012.13L292.47 1012.03Z" fill="#cecece" opacity="1" stroke-width="4" stroke="none"></path><path d="M299.67 936.42C306.37 900.92 318.07 866.62 334.18 834.31L295.27 802.81C269.27 802.81 241.07 826.51 229.27 811.71 219.27 799.21 215.97 782.41 219.97 764.61 225.87 739.01 235.37 722.61 235.47 722.41L235.57 722.31 266.07 725.71C267.17 725.81 377.38 738.51 410.98 778.51 433.28 804.91 412.98 860.92 396.68 906.02 392.68 917.12 388.88 927.62 386.18 936.52L299.67 936.42Z" fill="#abedd8" opacity="1" stroke-width="4" stroke="none"></path><path d="M361.68 881.72C343.78 868.12 319.87 867.62 319.67 867.62H319.37L319.47 867.22C323.87 855.92 328.77 844.81 334.18 834.11H287.07C261.07 834.11 241.07 826.31 229.27 811.51 219.27 799.01 215.97 782.21 219.97 764.41 225.87 738.81 235.37 722.41 235.47 722.21L235.57 722.11 266.07 725.51C267.17 725.61 377.38 738.31 410.98 778.31 433.28 804.71 412.98 860.72 396.68 905.82 395.18 910.02 393.68 914.12 392.28 918.02L392.08 918.52C392.18 918.52 374.38 891.52 361.68 881.72Z" fill="#121212" opacity="0.3" stroke-width="4" stroke="none"></path><path d="M383.87 978.12L370.27 983.82" stroke="#040404" stroke-width="4" stroke-linecap="round" stroke-linejoin="round" opacity="1" fill="none"></path><path d="M389.67 989.23L380.37 996.23" stroke="#040404" stroke-width="4" stroke-linecap="round" stroke-linejoin="round" opacity="1" fill="none"></path><path d="M386.17 936.52L299.66 936.42" stroke="#121212" stroke-width="4" stroke-linecap="round" stroke-linejoin="round" opacity="1" fill="none"></path><path d="M431.37 975.52L431.27 973.32C430.57 971.42 423.87 973.22 423.07 971.12 420.07 963.02 416.17 951.52 414.07 943.92L416.67 934.02 481.78 895.92 492.38 905.92C494.38 916.22 495.78 922.42 496.78 924.92L492.18 975.42 431.37 975.52Z" fill="#c65a42" opacity="1" stroke-width="4" stroke="none"></path><path d="M440.77 1012.83C440.57 1012.83 440.47 1012.73 440.47 1012.53 437.07 1005.23 430.97 991.33 430.17 989.03 427.67 982.92 423.67 972.52 423.27 971.22 423.27 971.12 423.27 971.02 423.37 971.02L424.77 970.42C437.17 964.72 449.37 962.42 463.07 962.42 470.77 962.32 478.28 963.32 485.68 965.22 486.18 965.32 486.58 964.82 486.28 964.32L477.28 951.42C473.07 945.32 474.58 936.92 480.68 932.72 481.28 932.32 481.88 931.92 482.48 931.62L496.48 925.12C496.78 925.02 497.08 925.12 497.28 925.32 497.48 925.62 497.58 926.02 497.68 926.32 498.18 927.52 498.78 928.72 499.38 929.82 508.58 948.02 520.38 951.32 531.78 954.52 537.28 956.12 542.48 957.52 547.18 960.62L547.28 961.12 447.37 1014.53 440.77 1012.83Z" fill="#cecece" opacity="1" stroke-width="4" stroke="none"></path><path d="M507.78 942.32L498.88 953.12" stroke="#040404" stroke-width="4" stroke-linecap="round" stroke-linejoin="round" opacity="1" fill="none"></path><path d="M517.78 949.72L512.88 960.32" stroke="#040404" stroke-width="4" stroke-linecap="round" stroke-linejoin="round" opacity="1" fill="none"></path><path d="M236.56 556.99C233.66 542.69 239.96 524.99 238.66 517.19L234.56 511.19C232.16 498.69 232.26 481.89 245.76 469.59 254.36 461.99 254.46 464.89 267.26 464.89 273.96 464.89 276.66 462.59 282.96 464.99 290.86 467.99 301.26 463.49 305.06 469.69 309.16 476.19 311.96 484.59 315.26 494.59L315.76 496.19C320.76 496.89 323.66 498.29 324.16 500.19 324.96 503.59 320.86 508.79 320.26 509.59 325.66 526.39 325.46 535.59 319.66 543.49 316.06 548.39 308.86 551.39 300.26 551.39 297.06 551.39 293.96 550.99 290.96 549.99L292.36 558.79 236.36 557.39 236.56 556.99Z" fill="#c65a42" opacity="1" stroke-width="4" stroke="none"></path><path d="M279.77 548.59C279.47 547.99 279.47 547.29 279.87 546.69 280.37 545.79 281.47 545.49 282.37 545.99L291.07 549.89 292.17 556.69 283.47 560.59 279.77 548.59Z" fill="#222020" opacity="0.3" stroke-width="4" stroke="none"></path><path d="M206.26 748.71C205.76 748.51 159.55 723.21 168.05 677.6 170.45 662.1 176.45 641.4 184.55 621 193.86 597.4 202.76 586.7 205.26 584 217.26 570.8 235.76 567.6 237.96 567.3 237.86 566.5 237.46 564.1 237.16 561.79 236.86 559.79 236.66 557.99 236.46 557.19V556.69H294.76L296.56 567.6C335.37 573.7 345.87 594.4 363.37 628.7 365.47 632.8 367.57 637 369.87 641.4 384.27 639.3 401.57 637.4 416.37 636.1H416.57L423.47 688.4 422.27 689C410.57 694.5 392.97 702.8 368.07 703.7 367.57 703.7 367.07 703.7 366.57 703.7 343.27 703.7 323.36 683.5 320.86 680.9L311.66 717.61 311.56 718.21H220.36C219.46 719.81 209.16 738.81 206.66 748.41L206.56 748.61 206.26 748.71Z" fill="#6961ff" opacity="1" stroke-width="4" stroke="none"></path><path d="M206.26 748.81C198.46 744.31 191.46 738.61 185.35 732.01L185.15 731.81 185.35 731.71C192.06 726.91 197.36 720.21 200.56 712.61 202.96 706.71 203.76 699.6 204.56 693.3 205.76 683.7 215.16 683.2 215.16 683.2L220.26 718.11 220.46 718.41C220.36 718.61 209.26 738.81 206.66 748.71L206.56 748.91 206.26 748.81Z" fill="#363539" opacity="0.3" stroke-width="4" stroke="none"></path><path d="M237.86 582C228.76 582 220.66 578.5 215.56 572.4 211.16 567.2 209.36 560.19 210.66 553.49 213.46 537.39 229.66 530.79 231.46 530.09 230.26 523.39 229.16 516.59 228.56 512.89L228.46 512.39C226.06 499.89 221.56 476.59 235.06 464.39 243.66 456.79 255.96 452.39 268.76 452.39 275.46 452.39 282.16 453.59 288.46 455.99 295.36 458.49 301.26 463.29 305.16 469.59V469.69 469.79C305.23 485.26 286.06 480.75 287.22 482.91 296.5 497.87 283.87 510.81 283.41 511.37L282.99 511.92 282.63 512.38C281.25 511.26 269.76 501.99 260.06 501.99 255.76 501.99 252.76 503.89 251.06 507.69 243.26 525.29 268.06 538.39 267.49 538.44 267.83 539.94 273.96 572.1 250.96 579.7 246.66 581.2 242.26 582 237.86 582Z" fill="#231f20" opacity="1" stroke-width="4" stroke="none"></path><path d="M320.86 680.9L303.66 657.3" stroke="#363539" stroke-width="4" stroke-linecap="round" stroke-linejoin="round" opacity="1" fill="none"></path><path d="M192.66 687.4L215.16 683.2" stroke="#363539" stroke-width="4" stroke-linecap="round" stroke-linejoin="round" opacity="1" fill="none"></path><path d="M369.87 641.4L365.77 658.6" stroke="#363539" stroke-width="4" stroke-linecap="round" stroke-linejoin="round" opacity="1" fill="none"></path><path d="M416.57 636.1L423.47 688.4" stroke="#363539" stroke-width="4" stroke-linecap="round" stroke-linejoin="round" opacity="1" fill="none"></path><path d="M296.56 567.6C292.96 567.4 287.06 567.8 287.06 567.8" stroke="#363539" stroke-width="4" stroke-linecap="round" stroke-linejoin="round" opacity="1" fill="none"></path><path d="M265.76 519.59L272.76 524.59" stroke="#222020" stroke-width="4" stroke-linecap="round" stroke-linejoin="round" opacity="1" fill="none"></path><path d="M303.76 512.59C306.06 515.79 309.86 517.59 313.76 517.59" stroke="#222020" stroke-width="4" stroke-linecap="round" stroke-linejoin="round" opacity="1" fill="none"></path><path d="M291.06 549.89L282.36 545.99" stroke="#222020" stroke-width="4" stroke-linecap="round" stroke-linejoin="round" opacity="1" fill="none"></path><path d="M305.26 501.59C306.64 501.59 307.76 500.47 307.76 499.09 307.76 497.71 306.64 496.59 305.26 496.59 303.88 496.59 302.76 497.71 302.76 499.09 302.76 500.47 303.88 501.59 305.26 501.59Z" fill="#231f20" opacity="1" stroke-width="4" stroke="none"></path><path d="M493.78 648.6C485.78 644.6 472.77 643.6 472.77 643.6" stroke="#222020" stroke-width="4" stroke-linecap="round" stroke-linejoin="round" opacity="1" fill="none"></path><path d="M490.98 662.4C484.78 659.6 470.77 657.6 470.77 657.6" stroke="#222020" stroke-width="4" stroke-linecap="round" stroke-linejoin="round" opacity="1" fill="none"></path><path d="M488.48 674.7C482.78 672.6 468.77 670.6 468.77 670.6" stroke="#222020" stroke-width="4" stroke-linecap="round" stroke-linejoin="round" opacity="1" fill="none"></path><path d="M353.17 986.92L358.37 1012.03" stroke="#040404" stroke-width="4" stroke-linecap="round" stroke-linejoin="round" opacity="1" fill="none"></path><path d="M296.06 661.1C295.26 658.9 296.46 656.4 298.76 655.7 300.56 655.1 302.56 655.7 303.66 657.3 307.46 662.9 320.86 680.9 320.86 680.9L313.16 711.51 296.06 661.1Z" fill="#363539" opacity="0.3" stroke-width="4" stroke="none"></path><path d="M414.08 943.92C400.28 891.82 399.28 866.72 399.38 834.51L254.27 834.81C238.77 834.81 225.57 828.81 215.87 817.51 207.27 807.41 202.17 793.71 201.57 779.01 200.77 760.91 206.97 740.21 219.97 717.51L220.17 717.21 311.67 717.61C312.77 717.81 422.18 737.71 451.08 767.31 470.88 787.71 475.59 814.41 482.19 851.42 483.29 857.52 484.39 863.82 485.69 870.42L486.59 875.02C488.69 886.22 492.39 905.92 492.39 905.92L414.08 943.92Z" fill="#abedd8" opacity="1" stroke-width="4" stroke="none"></path><path d="M448.47 1028.33C445.87 1023.33 444.17 1020.13 441.77 1015.23L440.57 1012.73C440.57 1012.63 440.57 1012.53 440.67 1012.43L547.08 960.62 547.38 960.82C548.88 961.82 550.08 962.82 551.38 964.02L551.58 964.22C551.58 964.22 556.78 970.32 558.48 973.92L558.58 974.12 448.77 1028.93 448.47 1028.33Z" fill="#6961ff" opacity="1" stroke-width="4" stroke="none"></path><path d="M208.76 638.6L215.16 683.2 220.16 717.21 311.66 717.61" stroke="#363539" stroke-width="4" stroke-linecap="round" stroke-linejoin="round" opacity="1" fill="none"></path><path d="M402.58 889.72C399.68 869.52 399.38 853.42 399.38 834.51L333.98 834.61" stroke="#121212" stroke-width="4" stroke-linecap="round" stroke-linejoin="round" opacity="1" fill="none"></path><path d="M414.77 817.61L399.37 834.51" stroke="#121212" stroke-width="4" stroke-linecap="round" stroke-linejoin="round" opacity="1" fill="none"></path><path d="M492.38 905.92L414.07 943.92" stroke="#121212" stroke-width="4" stroke-linecap="round" stroke-linejoin="round" opacity="1" fill="none"></path><path d="M486.08 964.32L499.48 983.82" stroke="#040404" stroke-width="4" stroke-linecap="round" stroke-linejoin="round" opacity="1" fill="none"></path></g><g><path d="M251.61 856.91L249.76 1000.34" stroke="#3a3a3a" stroke-width="4" stroke-linecap="round" stroke-linejoin="round" opacity="1" fill="none"></path><path d="M249.76 1000.34L285.94 1028.62" stroke="#3a3a3a" stroke-width="4" stroke-linecap="round" stroke-linejoin="round" opacity="1" fill="none"></path><path d="M249.76 1000.34L213.98 1028.62" stroke="#3a3a3a" stroke-width="4" stroke-linecap="round" stroke-linejoin="round" opacity="1" fill="none"></path><path d="M166.68 833.51H338.3C344.73 833.51 350 838.77 350 845.21 350 851.64 344.73 856.91 338.3 856.91H166.68C160.25 856.91 154.98 851.64 154.98 845.21 154.98 838.77 160.25 833.51 166.68 833.51Z" fill="#78c7e0" opacity="1" stroke-width="4" stroke="none"></path></g></svg>