<svg xmlns="http://www.w3.org/2000/svg" height="1200" width="1600" version="1.1" xmlnsXlink="http://www.w3.org/1999/xlink" xmlnsSvgjs="http://svgjs.com/svgjs"><rect fill="#613333ff" width="1600" height="1200"></rect><g><path d="M1420.99 529.29C1393.29 470.03 1328.65 448.41 1270.21 432.63 1192.6 411.47 1111.83 401.65 1031.41 403.64 1008.62 404.22 985.25 405.74 963.27 399.32 912.54 384.59 883.67 335.73 842.41 306.63 791.68 270.98 719.57 252.27 659.37 241.17 586.55 227.61 510.58 225.62 438.57 243.62 353.25 265.13 270.96 321.82 219.42 393 202.82 416.15 191.13 438.35 181.19 465.59 173.01 488.62 169.51 512.34 167.05 537.01 162.96 580.14 169.27 626.07 182.48 666.63 197.68 713.62 219.77 755.93 249.81 793.22 279.96 830.5 319.82 856.8 362.83 871.76 402.81 885.67 446.29 889.18 488.02 889.76 661.82 893.27 837.04 879.71 1009.56 856.1 1088.92 845.23 1172.49 837.28 1248.35 807.48 1309.13 783.63 1368.39 745.06 1404.04 689.31 1426.6 654.01 1438.52 611.34 1432.56 569.85 1430.69 555.01 1426.6 541.45 1420.99 529.29Z" fill="#613333" opacity="1" stroke-width="2" stroke="none"></path></g><g><path d="M482.8 288.1H338.1V382.6H482.8V288.1Z" fill="#f9ba7d" stroke="#333333" stroke-width="2" stroke-linecap="round" stroke-linejoin="round" opacity="1"></path><path d="M412.8 308.8V361.9" stroke="#333333" stroke-width="2" stroke-linecap="round" stroke-linejoin="round" opacity="1" fill="none"></path><path d="M371.8 361.9V308.8" stroke="#333333" stroke-width="2" stroke-linecap="round" stroke-linejoin="round" opacity="1" fill="none"></path><path d="M371.8 308.8L379.4 301.2" stroke="#333333" stroke-width="2" stroke-linecap="round" stroke-linejoin="round" opacity="1" fill="none"></path><path d="M405.2 301.2L412.8 308.8" stroke="#333333" stroke-width="2" stroke-linecap="round" stroke-linejoin="round" opacity="1" fill="none"></path><path d="M412.8 361.9L405.2 369.5" stroke="#333333" stroke-width="2" stroke-linecap="round" stroke-linejoin="round" opacity="1" fill="none"></path><path d="M379.4 369.5L371.8 361.9" stroke="#333333" stroke-width="2" stroke-linecap="round" stroke-linejoin="round" opacity="1" fill="none"></path><path d="M379.4 301.2H405.2" stroke="#333333" stroke-width="2" stroke-linecap="round" stroke-linejoin="round" opacity="1" fill="none"></path><path d="M379.4 369.5H405.2" stroke="#333333" stroke-width="2" stroke-linecap="round" stroke-linejoin="round" opacity="1" fill="none"></path><path d="M441.5 359V369.5" stroke="#333333" stroke-width="2" stroke-linecap="round" stroke-linejoin="round" opacity="1" fill="none"></path><path d="M441.5 301.2V353.6" stroke="#333333" stroke-width="2" stroke-linecap="round" stroke-linejoin="round" opacity="1" fill="none"></path><path d="M433.9 308.8L441.5 301.2" stroke="#333333" stroke-width="2" stroke-linecap="round" stroke-linejoin="round" opacity="1" fill="none"></path><path d="M433.9 369.5H449.1" stroke="#333333" stroke-width="2" stroke-linecap="round" stroke-linejoin="round" opacity="1" fill="none"></path></g><g><path d="M1027.34 288.35H572.81V576.25H1027.34V288.35Z" fill="#ffffff" stroke="#333333" stroke-width="2" stroke-linecap="round" stroke-linejoin="round" opacity="1"></path><path d="M624.45 576.25V621.85" stroke="#333333" stroke-width="2" stroke-linecap="round" stroke-linejoin="round" opacity="1" fill="none"></path><path d="M975.69 576.25V621.85" stroke="#333333" stroke-width="2" stroke-linecap="round" stroke-linejoin="round" opacity="1" fill="none"></path></g><g><path d="M974.08 288.27H563.86V580.54L800.1 579.1 1036.14 579.47V288.27H991.84" fill="#6d4646" opacity="1" stroke-width="2" stroke="none"></path><path d="M974.08 287.43H563.86V579.72L800.1 579.93 1036.14 579.6V287.43H991.84" stroke="#333333" stroke-width="2" stroke-linecap="round" stroke-linejoin="round" opacity="1" fill="none"></path><path d="M1003.1 537.41C1007.88 529.39 1008.26 521.56 1003.87 517.36 993.94 508.96 985.92 519.84 985.92 519.84 985.92 519.84 977.9 508.96 967.96 517.36 960.52 524.43 966.63 542.57 985.92 553.07 992.22 549.64 997.18 545.24 1000.62 540.85" fill="#333333" opacity="1" stroke-width="2" stroke="none"></path><path d="M1003.1 537.41C1007.88 529.39 1008.26 521.56 1003.87 517.36 993.94 508.96 985.92 519.84 985.92 519.84 985.92 519.84 977.9 508.96 967.96 517.36 960.52 524.43 966.63 542.57 985.92 553.07 992.22 549.64 997.18 545.24 1000.62 540.85" stroke="#333333" stroke-width="2" stroke-linecap="round" stroke-linejoin="round" opacity="1" fill="none"></path><path d="M929.96 314.16H1006.92V329.44H906.85V314.16H919.65" fill="#ffffff" opacity="1" stroke-width="2" stroke="none"></path><path d="M929.96 314.16H1006.92V329.44H906.85V314.16H919.65" stroke="#333333" stroke-width="2" stroke-linecap="round" stroke-linejoin="round" opacity="1" fill="none"></path><path d="M969.87 329.44L978.28 314.16H1006.92V329.44H969.87Z" fill="#333333" stroke="#333333" stroke-width="2" stroke-linecap="round" stroke-linejoin="round" opacity="1"></path><path d="M985.73 520.04C985.73 520.04 989.16 524.24 990.12 526.15" stroke="#333333" stroke-width="2" stroke-linecap="round" stroke-linejoin="round" opacity="1" fill="none"></path><path d="M887.37 368.02L865.98 377.18 878.01 397.05 855.29 391.7 853.38 414.81 838.1 397.43 822.82 414.81 820.91 391.7 798.19 397.05 810.22 377.18 788.83 368.02 810.22 358.85 798.19 338.99 820.91 344.34 822.82 321.23 838.1 338.61 853.38 321.23 855.29 344.34 878.01 338.99 865.98 358.85 887.37 368.02Z" fill="#f9ba7d" stroke="#333333" stroke-width="2" stroke-linecap="round" stroke-linejoin="round" opacity="1"></path><path d="M819.58 442.88L835.04 436.96 851.28 479.55 835.81 485.66 819.58 442.88Z" fill="#f9ba7d" stroke="#333333" stroke-width="2" stroke-linecap="round" stroke-linejoin="round" opacity="1"></path><path d="M841.35 453.58L833.71 456.63" stroke="#333333" stroke-width="2" stroke-linecap="round" stroke-linejoin="round" opacity="1" fill="none"></path><path d="M846.31 466.56L834.85 470.95" stroke="#333333" stroke-width="2" stroke-linecap="round" stroke-linejoin="round" opacity="1" fill="none"></path><path d="M801.81 445.17C803.34 449.18 807.93 451.28 811.94 449.76L844.98 437.15C848.99 435.62 851.09 431.04 849.56 427.03" stroke="#333333" stroke-width="2" stroke-linecap="round" stroke-linejoin="round" opacity="1" fill="none"></path><path d="M842.68 438.11L814.61 448.8 768.2 327.72 776.03 306.14 796.28 317.03 842.68 438.11Z" fill="#78b6e0" stroke="#333333" stroke-width="2" stroke-linecap="round" stroke-linejoin="round" opacity="1"></path><path d="M801.81 373.36L797.61 362.67" stroke="#333333" stroke-width="2" stroke-linecap="round" stroke-linejoin="round" opacity="1" fill="none"></path><path d="M828.55 443.45L804.68 380.81" stroke="#333333" stroke-width="2" stroke-linecap="round" stroke-linejoin="round" opacity="1" fill="none"></path><path d="M849.77 456.55L737.61 499.56 757.09 550.38 869.25 507.37 849.77 456.55Z" fill="#ffffff" stroke="#333333" stroke-width="2" stroke-linecap="round" stroke-linejoin="round" opacity="1"></path><path d="M763.73 579.7H606.56V467.59C606.56 435.13 632.91 408.77 665.38 408.77H724.2C745.97 408.77 763.73 426.53 763.73 448.3V579.7Z" fill="#ffffff" stroke="#333333" stroke-width="2" stroke-linecap="round" stroke-linejoin="round" opacity="1"></path><path d="M750.25 400.29V380.43L689.33 372.22V414.81L720.84 419.39H750.25 764.57V400.29H750.25Z" fill="#333333" stroke="#333333" stroke-width="2" stroke-linecap="round" stroke-linejoin="round" opacity="1"></path><path d="M746.43 360.76C746.43 360.76 717.78 335.74 686.85 355.22 680.35 359.23 666.79 372.6 671.57 394.18 677.68 409.08 692.38 419.39 709.38 419.39 727.52 419.39 742.99 407.55 748.34 391.13 749.68 387.12 750.44 382.91 750.44 378.33 750.25 372.22 748.91 366.11 746.43 360.76Z" fill="#ffffff" stroke="#333333" stroke-width="2" stroke-linecap="round" stroke-linejoin="round" opacity="1"></path><path d="M735.93 372.22V388.64" stroke="#333333" stroke-width="2" stroke-linecap="round" stroke-linejoin="round" opacity="1" fill="none"></path><path d="M725.04 388.64C725.04 391.7 727.52 394.18 730.58 394.18 733.64 394.18 736.12 391.7 736.12 388.64" stroke="#333333" stroke-width="2" stroke-linecap="round" stroke-linejoin="round" opacity="1" fill="none"></path><path d="M750.06 371.26C749.49 348.73 731.15 330.59 708.24 331.16 685.89 331.73 668.51 350.83 668.51 373.17V419.39H721.03V400.29H706.9V372.22H749.3C749.49 372.22 750.06 371.84 750.06 371.26Z" fill="#78b6e0" stroke="#333333" stroke-width="2" stroke-linecap="round" stroke-linejoin="round" opacity="1"></path><path d="M706.71 372.22H690.67" stroke="#333333" stroke-width="2" stroke-linecap="round" stroke-linejoin="round" opacity="1" fill="none"></path><path d="M677.68 372.22H685.13" stroke="#333333" stroke-width="2" stroke-linecap="round" stroke-linejoin="round" opacity="1" fill="none"></path><path d="M660.99 578.88V514.31" stroke="#333333" stroke-width="2" stroke-linecap="round" stroke-linejoin="round" opacity="1" fill="none"></path><path d="M677.87 498.26C677.87 507.05 670.61 514.31 661.83 514.31" stroke="#333333" stroke-width="2" stroke-linecap="round" stroke-linejoin="round" opacity="1" fill="none"></path></g><g><path d="M1246.3 528.45C1217.13 528.45 1193.49 504.8 1193.49 475.63 1193.49 446.47 1217.13 422.82 1246.3 422.82 1275.47 422.82 1299.11 446.47 1299.11 475.63 1299.11 504.8 1275.47 528.45 1246.3 528.45Z" fill="#78b6e0" stroke="#333333" stroke-width="2" stroke-linecap="round" stroke-linejoin="round" opacity="1"></path><path d="M1273.2 456.9H1261.37" stroke="#333333" stroke-width="2" stroke-linecap="round" stroke-linejoin="round" opacity="1" fill="none"></path><path d="M1273.2 475.63H1219.4" stroke="#333333" stroke-width="2" stroke-linecap="round" stroke-linejoin="round" opacity="1" fill="none"></path><path d="M1273.2 494.22H1252.21" stroke="#333333" stroke-width="2" stroke-linecap="round" stroke-linejoin="round" opacity="1" fill="none"></path><path d="M1252.21 456.9H1240.24" stroke="#333333" stroke-width="2" stroke-linecap="round" stroke-linejoin="round" opacity="1" fill="none"></path><path d="M1231.09 456.9H1219.4" stroke="#333333" stroke-width="2" stroke-linecap="round" stroke-linejoin="round" opacity="1" fill="none"></path><path d="M1240.24 494.22H1219.4" stroke="#333333" stroke-width="2" stroke-linecap="round" stroke-linejoin="round" opacity="1" fill="none"></path><path d="M1246.3 528.45V561.68C1246.3 578.86 1260.24 592.38 1277 592.38H1291.93" stroke="#333333" stroke-width="2" stroke-linecap="round" stroke-linejoin="round" opacity="1" fill="none"></path></g><g><path d="M1305.66 467.59C1325.19 467.59 1341.01 451.76 1341.01 432.23 1341.01 412.7 1325.19 396.88 1305.66 396.88 1286.12 396.88 1270.3 412.7 1270.3 432.23 1270.3 451.76 1286.12 467.59 1305.66 467.59Z" fill="#6d4646" stroke="#333333" stroke-width="2" stroke-linecap="round" stroke-linejoin="round" opacity="1"></path><path d="M1290.06 431.99L1300.74 442.67 1321.37 421.92" stroke="#333333" stroke-width="2" stroke-linecap="round" stroke-linejoin="round" opacity="1" fill="none"></path></g><g><path d="M200 683.6V803C200 820 213.8 833.8 230.8 833.8H355.4 381C386.8 833.8 391.4 829.1 391.3 823.3 391.2 817.6 386.3 813.2 380.6 813.2H355.3V651.2C355.3 638.4 350 626.2 340.7 617.5L329.5 607.1C321.1 599.3 316.4 588.3 316.4 576.9 316.4 560.2 302.8 546.6 286.1 546.6H269.2C252.5 546.6 238.9 560.2 238.9 576.9 238.9 588.4 234.1 599.3 225.8 607.1L214.6 617.5C205.3 626.2 200 638.4 200 651.2V673.4" fill="#a8723d" opacity="1" stroke-width="2" stroke="none"></path><path d="M200 683.6V803C200 820 213.8 833.8 230.8 833.8H355.4 381C386.8 833.8 391.4 829.1 391.3 823.3 391.2 817.6 386.3 813.2 380.6 813.2H355.3V651.2C355.3 638.4 350 626.2 340.7 617.5L329.5 607.1C321.1 599.3 316.4 588.3 316.4 576.9 316.4 560.2 302.8 546.6 286.1 546.6H269.2C252.5 546.6 238.9 560.2 238.9 576.9 238.9 588.4 234.1 599.3 225.8 607.1L214.6 617.5C205.3 626.2 200 638.4 200 651.2V673.4" stroke="#333333" stroke-width="2" stroke-linecap="round" stroke-linejoin="round" opacity="1" fill="none"></path><path d="M355.3 813.1H265.9" stroke="#333333" stroke-width="2" stroke-linecap="round" stroke-linejoin="round" opacity="1" fill="none"></path><path d="M259.3 813.1H247.8V762.9C247.8 736.5 226.4 715.1 200 715.1" stroke="#333333" stroke-width="2" stroke-linecap="round" stroke-linejoin="round" opacity="1" fill="none"></path><path d="M310.6 954.9H244.7C236.7 954.9 230.2 961.4 230.2 969.4H325.1C325.1 961.4 318.6 954.9 310.6 954.9Z" fill="#a8723d" stroke="#333333" stroke-width="2" stroke-linecap="round" stroke-linejoin="round" opacity="1"></path><path d="M277.7 854.8V833.7" stroke="#333333" stroke-width="2" stroke-linecap="round" stroke-linejoin="round" opacity="1" fill="none"></path><path d="M277.7 954.9V861.3" stroke="#333333" stroke-width="2" stroke-linecap="round" stroke-linejoin="round" opacity="1" fill="none"></path><path d="M221.5 658.7V648.1" stroke="#333333" stroke-width="2" stroke-linecap="round" stroke-linejoin="round" opacity="1" fill="none"></path><path d="M221.5 720.2V668.1" stroke="#333333" stroke-width="2" stroke-linecap="round" stroke-linejoin="round" opacity="1" fill="none"></path></g><g><path d="M189.04 620.6L140.14 513.29 96.73 533.52 151.13 645.52C160.64 665.22 183.42 674.73 204.18 667.76L225.22 660.66 252.55 746H347.27L359.19 720.68 331.86 632.12 358.12 621C374.33 614.17 385.19 598.63 386.12 581.08L391.62 476.98 345.53 473.63 341.11 569.16 189.04 620.6Z" fill="#ffffff" stroke="#333333" stroke-width="2" stroke-linecap="round" stroke-linejoin="round" opacity="1"></path><path d="M359.19 720.68L366.96 746H401.8C422.03 746 440.79 756.32 451.5 773.47L530.55 899.41 477.49 932.77 399.12 808.7 369.78 969.74 308.15 958.49 332.4 825.18 288.19 816.07C267.42 811.79 252.55 793.57 252.55 772.26V746L359.19 720.68Z" fill="#333333" stroke="#333333" stroke-width="2" stroke-linecap="round" stroke-linejoin="round" opacity="1"></path><path d="M301.72 558.97C301.72 558.97 272.24 539.28 245.98 561.25 240.49 565.81 229.64 579.74 236.61 599.03 244.11 612.03 258.85 619.8 274.65 617.79 291.54 615.51 304.26 602.65 307.21 586.84 307.88 582.96 308.01 578.94 307.48 574.92 306.68 568.89 304.67 563.53 301.72 558.97Z" fill="#ffffff" stroke="#333333" stroke-width="2" stroke-linecap="round" stroke-linejoin="round" opacity="1"></path><path d="M285.77 570.36L287.92 586.84" stroke="#333333" stroke-width="2" stroke-linecap="round" stroke-linejoin="round" opacity="1" fill="none"></path><path d="M277.74 588.18C278.14 590.99 280.68 593 283.5 592.6 286.31 592.2 288.32 589.65 287.92 586.84" stroke="#333333" stroke-width="2" stroke-linecap="round" stroke-linejoin="round" opacity="1" fill="none"></path><path d="M264.61 541.82C249.47 543.83 237.68 554.42 233.26 567.95 231.51 573.17 230.98 578.94 231.78 584.7 232.32 588.85 233.52 592.6 235.27 596.22 235.67 597.16 236.2 598.09 236.74 598.9 245.98 597.69 252.41 589.25 251.21 580.01L249.33 565.81 301.85 558.84C293.81 547.05 279.75 539.95 264.61 541.82Z" fill="#333333" stroke="#333333" stroke-width="2" stroke-linecap="round" stroke-linejoin="round" opacity="1"></path><path d="M332.4 825.18L335.08 810.71" stroke="#333333" stroke-width="2" stroke-linecap="round" stroke-linejoin="round" opacity="1" fill="none"></path><path d="M355.44 760.34L339.1 756.86" stroke="#333333" stroke-width="2" stroke-linecap="round" stroke-linejoin="round" opacity="1" fill="none"></path><path d="M399.12 808.7C402.74 787.54 388.94 767.31 367.9 762.89L364.95 762.22" stroke="#333333" stroke-width="2" stroke-linecap="round" stroke-linejoin="round" opacity="1" fill="none"></path></g><g><path d="M1392.15 683.5V802.91C1392.15 819.91 1378.35 833.71 1361.35 833.71H1236.74 1211.14C1205.34 833.71 1200.74 829.01 1200.84 823.21 1200.94 817.51 1205.84 813.11 1211.54 813.11H1236.84V651.1C1236.84 638.3 1242.14 626.1 1251.44 617.4L1262.64 607C1271.04 599.2 1275.74 588.2 1275.74 576.8 1275.74 560.1 1289.35 546.49 1306.05 546.49H1322.95C1339.65 546.49 1353.25 560.1 1353.25 576.8 1353.25 588.3 1358.05 599.2 1366.35 607L1377.55 617.4C1386.85 626.1 1392.15 638.3 1392.15 651.1V673.3" fill="#a8723d" opacity="1" stroke-width="2" stroke="none"></path><path d="M1392.15 683.5V802.91C1392.15 819.91 1378.35 833.71 1361.35 833.71H1236.74 1211.14C1205.34 833.71 1200.74 829.01 1200.84 823.21 1200.94 817.51 1205.84 813.11 1211.54 813.11H1236.84V651.1C1236.84 638.3 1242.14 626.1 1251.44 617.4L1262.64 607C1271.04 599.2 1275.74 588.2 1275.74 576.8 1275.74 560.1 1289.35 546.49 1306.05 546.49H1322.95C1339.65 546.49 1353.25 560.1 1353.25 576.8 1353.25 588.3 1358.05 599.2 1366.35 607L1377.55 617.4C1386.85 626.1 1392.15 638.3 1392.15 651.1V673.3" stroke="#333333" stroke-width="2" stroke-linecap="round" stroke-linejoin="round" opacity="1" fill="none"></path><path d="M1236.84 813.01H1326.25" stroke="#333333" stroke-width="2" stroke-linecap="round" stroke-linejoin="round" opacity="1" fill="none"></path><path d="M1332.85 813.01H1344.35V762.81C1344.35 736.41 1365.75 715 1392.15 715" stroke="#333333" stroke-width="2" stroke-linecap="round" stroke-linejoin="round" opacity="1" fill="none"></path><path d="M1281.54 954.82H1347.45C1355.45 954.82 1361.95 961.32 1361.95 969.32H1267.04C1267.04 961.32 1273.54 954.82 1281.54 954.82Z" fill="#a8723d" stroke="#333333" stroke-width="2" stroke-linecap="round" stroke-linejoin="round" opacity="1"></path><path d="M1314.45 854.71V833.61" stroke="#333333" stroke-width="2" stroke-linecap="round" stroke-linejoin="round" opacity="1" fill="none"></path><path d="M1314.45 954.82V861.21" stroke="#333333" stroke-width="2" stroke-linecap="round" stroke-linejoin="round" opacity="1" fill="none"></path><path d="M1370.65 658.6V648" stroke="#333333" stroke-width="2" stroke-linecap="round" stroke-linejoin="round" opacity="1" fill="none"></path><path d="M1370.65 720.1V668" stroke="#333333" stroke-width="2" stroke-linecap="round" stroke-linejoin="round" opacity="1" fill="none"></path></g><g><path d="M1199.28 812.89H1305.42C1324.78 812.89 1340.5 797.17 1340.5 777.81V752.09L1284.5 740.92 1230.33 752.09H1199.28V812.89Z" fill="#333333" stroke="#333333" stroke-width="2" stroke-linecap="round" stroke-linejoin="round" opacity="1"></path><path d="M1307.63 617.11H1239.81 1230.33 1200.32L1206.69 560.47C1208.77 542.29 1194.61 526.44 1176.29 526.44H1170.18L1159.27 625.43C1157.45 642.58 1170.83 657.52 1188.11 657.52H1230.33V696.23C1221.24 703.64 1215.39 714.94 1215.39 727.67H1230.33V752.22H1340.5V650.11C1340.5 631.79 1325.69 617.11 1307.63 617.11Z" fill="#ffffff" stroke="#333333" stroke-width="2" stroke-linecap="round" stroke-linejoin="round" opacity="1"></path><path d="M1230.33 657.52V646.21" stroke="#333333" stroke-width="2" stroke-linecap="round" stroke-linejoin="round" opacity="1" fill="none"></path><path d="M1240.59 609.58H1237.61C1233.06 609.58 1229.29 605.81 1229.29 601.26V582.3C1229.29 577.75 1233.06 573.98 1237.61 573.98H1240.59C1243.45 573.98 1245.79 576.32 1245.79 579.18V604.38C1245.92 607.24 1243.58 609.58 1240.59 609.58Z" fill="#f9ba7d" stroke="#333333" stroke-width="2" stroke-linecap="round" stroke-linejoin="round" opacity="1"></path><path d="M1240.2 573.98C1240.2 573.98 1266.06 551.38 1294.12 569.05 1299.96 572.68 1312.18 584.64 1307.89 604.25 1302.3 617.63 1289.05 627.12 1273.72 627.12 1257.22 627.12 1243.32 616.33 1238.52 601.52 1237.35 597.89 1236.7 593.99 1236.7 590.09 1236.57 584.25 1237.87 578.79 1240.2 573.98Z" fill="#ffffff" stroke="#333333" stroke-width="2" stroke-linecap="round" stroke-linejoin="round" opacity="1"></path><path d="M1256.96 595.29V598.93" stroke="#333333" stroke-width="2" stroke-linecap="round" stroke-linejoin="round" opacity="1" fill="none"></path><path d="M1266.97 598.93C1266.97 601.65 1264.76 603.86 1262.03 603.86 1259.3 603.86 1257.09 601.65 1257.09 598.93" stroke="#333333" stroke-width="2" stroke-linecap="round" stroke-linejoin="round" opacity="1" fill="none"></path><path d="M1273.59 552.81C1288.4 552.81 1301.13 561.38 1307.11 573.98 1309.45 578.79 1310.75 584.25 1310.75 589.96 1310.75 593.99 1310.1 597.89 1308.93 601.39 1308.67 602.3 1308.28 603.21 1307.89 604.12 1298.92 604.12 1291.52 596.85 1291.52 587.75V573.98H1240.2C1246.18 561.51 1258.91 552.81 1273.59 552.81Z" fill="#333333" stroke="#333333" stroke-width="2" stroke-linecap="round" stroke-linejoin="round" opacity="1"></path><path d="M1306.85 609.58H1309.84C1314.38 609.58 1318.15 605.81 1318.15 601.26V582.3C1318.15 577.75 1314.38 573.98 1309.84 573.98H1306.85C1303.99 573.98 1301.65 576.32 1301.65 579.18V604.38C1301.52 607.24 1303.86 609.58 1306.85 609.58Z" fill="#f9ba7d" stroke="#333333" stroke-width="2" stroke-linecap="round" stroke-linejoin="round" opacity="1"></path><path d="M1309.84 573.98V565.8C1309.84 553.85 1300.09 544.1 1288.14 544.1H1259.43C1247.48 544.1 1237.74 553.85 1237.74 565.8V573.98" stroke="#333333" stroke-width="2" stroke-linecap="round" stroke-linejoin="round" opacity="1" fill="none"></path><path d="M1156.8 969.56L1197.98 796.52H1264.89L1223.84 969.56H1156.8Z" fill="#333333" stroke="#333333" stroke-width="2" stroke-linecap="round" stroke-linejoin="round" opacity="1"></path><path d="M1284.11 837.31L1147.97 794.83C1131.99 789.9 1123.02 772.75 1127.96 756.77 1132.9 740.79 1150.05 731.83 1166.02 736.76L1302.17 779.24 1284.11 837.31Z" fill="#333333" stroke="#333333" stroke-width="2" stroke-linecap="round" stroke-linejoin="round" opacity="1"></path><path d="M1230.33 727.54H1316.85C1329.84 727.54 1340.37 717.02 1340.37 704.02" stroke="#333333" stroke-width="2" stroke-linecap="round" stroke-linejoin="round" opacity="1" fill="none"></path><path d="M1230.33 696.23C1237.22 690.64 1246.05 687.27 1255.66 687.27H1305.42C1295.55 687.27 1287.49 679.21 1287.49 669.34" stroke="#333333" stroke-width="2" stroke-linecap="round" stroke-linejoin="round" opacity="1" fill="none"></path></g><g><path d="M638.7 758.5H363.1V969.4H638.7V758.5Z" fill="#78b6e0" stroke="#333333" stroke-width="2" stroke-linecap="round" stroke-linejoin="round" opacity="1"></path><path d="M353.9 758.5H648" stroke="#333333" stroke-width="2" stroke-linecap="round" stroke-linejoin="round" opacity="1" fill="none"></path><path d="M563.6 822.6H438.2V905.4H563.6V822.6Z" fill="#a8723d" stroke="#333333" stroke-width="2" stroke-linecap="round" stroke-linejoin="round" opacity="1"></path><path d="M451.7 838.1C453.8 838.1 455.5 836.4 455.5 834.3 455.5 832.2 453.8 830.5 451.7 830.5 449.6 830.5 447.9 832.2 447.9 834.3 447.9 836.4 449.6 838.1 451.7 838.1Z" fill="#a8723d" stroke="#333333" stroke-width="2" stroke-linecap="round" stroke-linejoin="round" opacity="1"></path><path d="M451.7 897.4C453.8 897.4 455.5 895.7 455.5 893.6 455.5 891.5 453.8 889.8 451.7 889.8 449.6 889.8 447.9 891.5 447.9 893.6 447.9 895.7 449.6 897.4 451.7 897.4Z" fill="#a8723d" stroke="#333333" stroke-width="2" stroke-linecap="round" stroke-linejoin="round" opacity="1"></path><path d="M550.2 838.1C552.3 838.1 554 836.4 554 834.3 554 832.2 552.3 830.5 550.2 830.5 548.1 830.5 546.4 832.2 546.4 834.3 546.4 836.4 548.1 838.1 550.2 838.1Z" fill="#a8723d" stroke="#333333" stroke-width="2" stroke-linecap="round" stroke-linejoin="round" opacity="1"></path><path d="M550.2 897.4C552.3 897.4 554 895.7 554 893.6 554 891.5 552.3 889.8 550.2 889.8 548.1 889.8 546.4 891.5 546.4 893.6 546.4 895.7 548.1 897.4 550.2 897.4Z" fill="#a8723d" stroke="#333333" stroke-width="2" stroke-linecap="round" stroke-linejoin="round" opacity="1"></path></g><g><path d="M485.1 743.05H415C408.1 743.05 402.5 748.65 402.5 755.55V758.55H478.2L485.1 743.05Z" fill="#f9ba7d" stroke="#333333" stroke-width="2" stroke-linecap="round" stroke-linejoin="round" opacity="1"></path><path d="M648 650.45H512.7L464 758.55H599.2L648 650.45Z" fill="#f9ba7d" stroke="#333333" stroke-width="2" stroke-linecap="round" stroke-linejoin="round" opacity="1"></path><path d="M556 715.05C561.85 715.05 566.6 710.3 566.6 704.45 566.6 698.6 561.85 693.85 556 693.85 550.15 693.85 545.4 698.6 545.4 704.45 545.4 710.3 550.15 715.05 556 715.05Z" fill="#333333" stroke="#333333" stroke-width="2" stroke-linecap="round" stroke-linejoin="round" opacity="1"></path></g><g><path d="M1261.9 363.9V290.1H1117.2V384.6H1261.9V371.5" fill="#f9ba7d" opacity="1" stroke-width="2" stroke="none"></path><path d="M1261.9 363.9V290.1H1117.2V384.6H1261.9V371.5" stroke="#333333" stroke-width="2" stroke-linecap="round" stroke-linejoin="round" opacity="1" fill="none"></path><path d="M1179 310.8V363.9" stroke="#333333" stroke-width="2" stroke-linecap="round" stroke-linejoin="round" opacity="1" fill="none"></path><path d="M1138 363.9V310.8" stroke="#333333" stroke-width="2" stroke-linecap="round" stroke-linejoin="round" opacity="1" fill="none"></path><path d="M1138 310.8L1145.6 303.2" stroke="#333333" stroke-width="2" stroke-linecap="round" stroke-linejoin="round" opacity="1" fill="none"></path><path d="M1171.4 303.2L1179 310.8" stroke="#333333" stroke-width="2" stroke-linecap="round" stroke-linejoin="round" opacity="1" fill="none"></path><path d="M1179 363.9L1171.4 371.5" stroke="#333333" stroke-width="2" stroke-linecap="round" stroke-linejoin="round" opacity="1" fill="none"></path><path d="M1145.6 371.5L1138 363.9" stroke="#333333" stroke-width="2" stroke-linecap="round" stroke-linejoin="round" opacity="1" fill="none"></path><path d="M1145.6 303.2H1171.4" stroke="#333333" stroke-width="2" stroke-linecap="round" stroke-linejoin="round" opacity="1" fill="none"></path><path d="M1145.6 371.5H1171.4" stroke="#333333" stroke-width="2" stroke-linecap="round" stroke-linejoin="round" opacity="1" fill="none"></path><path d="M1200.1 310.8L1207.7 303.2" stroke="#333333" stroke-width="2" stroke-linecap="round" stroke-linejoin="round" opacity="1" fill="none"></path><path d="M1233.5 303.2L1241.1 310.8" stroke="#333333" stroke-width="2" stroke-linecap="round" stroke-linejoin="round" opacity="1" fill="none"></path><path d="M1207.7 303.2H1233.5" stroke="#333333" stroke-width="2" stroke-linecap="round" stroke-linejoin="round" opacity="1" fill="none"></path><path d="M1200.1 371.5H1241.1" stroke="#333333" stroke-width="2" stroke-linecap="round" stroke-linejoin="round" opacity="1" fill="none"></path><path d="M1241.1 310.8V330.6L1200.2 371.5" stroke="#333333" stroke-width="2" stroke-linecap="round" stroke-linejoin="round" opacity="1" fill="none"></path></g><g><path d="M1209.94 758.71H934.61V969.4H1209.94V758.71Z" fill="#78b6e0" stroke="#333333" stroke-width="2" stroke-linecap="round" stroke-linejoin="round" opacity="1"></path><path d="M925.42 758.71H1219.23" stroke="#333333" stroke-width="2" stroke-linecap="round" stroke-linejoin="round" opacity="1" fill="none"></path><path d="M1134.91 822.75H1009.64V905.46H1134.91V822.75Z" fill="#a8723d" stroke="#333333" stroke-width="2" stroke-linecap="round" stroke-linejoin="round" opacity="1"></path><path d="M1023.12 838.23C1025.22 838.23 1026.92 836.53 1026.92 834.43 1026.92 832.34 1025.22 830.64 1023.12 830.64 1021.03 830.64 1019.33 832.34 1019.33 834.43 1019.33 836.53 1021.03 838.23 1023.12 838.23Z" fill="#a8723d" stroke="#333333" stroke-width="2" stroke-linecap="round" stroke-linejoin="round" opacity="1"></path><path d="M1023.12 897.47C1025.22 897.47 1026.92 895.77 1026.92 893.67 1026.92 891.58 1025.22 889.88 1023.12 889.88 1021.03 889.88 1019.33 891.58 1019.33 893.67 1019.33 895.77 1021.03 897.47 1023.12 897.47Z" fill="#a8723d" stroke="#333333" stroke-width="2" stroke-linecap="round" stroke-linejoin="round" opacity="1"></path><path d="M1121.53 838.23C1123.62 838.23 1125.32 836.53 1125.32 834.43 1125.32 832.34 1123.62 830.64 1121.53 830.64 1119.43 830.64 1117.73 832.34 1117.73 834.43 1117.73 836.53 1119.43 838.23 1121.53 838.23Z" fill="#a8723d" stroke="#333333" stroke-width="2" stroke-linecap="round" stroke-linejoin="round" opacity="1"></path><path d="M1121.53 897.47C1123.62 897.47 1125.32 895.77 1125.32 893.67 1125.32 891.58 1123.62 889.88 1121.53 889.88 1119.43 889.88 1117.73 891.58 1117.73 893.67 1117.73 895.77 1119.43 897.47 1121.53 897.47Z" fill="#a8723d" stroke="#333333" stroke-width="2" stroke-linecap="round" stroke-linejoin="round" opacity="1"></path></g><g><path d="M1078.52 743.17H1148.92C1155.85 743.17 1161.47 748.79 1161.47 755.72V758.73H1085.45L1078.52 743.17Z" fill="#f9ba7d" stroke="#333333" stroke-width="2" stroke-linecap="round" stroke-linejoin="round" opacity="1"></path><path d="M914.92 650.17H1050.8L1099.71 758.73H963.93L914.92 650.17Z" fill="#f9ba7d" stroke="#333333" stroke-width="2" stroke-linecap="round" stroke-linejoin="round" opacity="1"></path><path d="M1007.31 715.05C1001.44 715.05 996.67 710.28 996.67 704.4 996.67 698.53 1001.44 693.76 1007.31 693.76 1013.19 693.76 1017.96 698.53 1017.96 704.4 1017.96 710.28 1013.19 715.05 1007.31 715.05Z" fill="#333333" stroke="#333333" stroke-width="2" stroke-linecap="round" stroke-linejoin="round" opacity="1"></path></g><g><path d="M1111.25 969.4L1409.98 969.4" stroke="#333333" stroke-width="2" stroke-linecap="round" stroke-linejoin="round" opacity="1" fill="none"></path><path d="M190.02 969.4L1046.75 969.4" stroke="#333333" stroke-width="2" stroke-linecap="round" stroke-linejoin="round" opacity="1" fill="none"></path></g></svg>