<svg xmlns="http://www.w3.org/2000/svg" height="1000" width="1000" version="1.1" xmlnsXlink="http://www.w3.org/1999/xlink" xmlnsSvgjs="http://svgjs.com/svgjs"><rect fill="#242222" width="1000" height="1000"></rect><g><path d="M749.97 600.13C751.74 522.38 675.76 444.62 582.92 477.73 582.92 477.73 542.71 392.87 435.38 400.27 328.35 407.66 253.84 518.83 250.3 600.13H749.97Z" fill="#42708f" opacity="1" stroke-width="4" stroke="#000000"></path><path d="M704.73 499.93C666.29 548.72 592.97 571.19 530.59 523.88 530.59 523.88 466.43 592.77 366.49 553.15 334.26 540.44 308.54 518.27 289.32 491.66 265.67 526.54 251.77 565.87 250 600.16H749.97C750.85 562.62 733.41 525.07 704.73 499.93Z" fill="#42708f00" opacity="0" stroke-width="4" stroke="#ffffff00"></path><path d="M582.62 477.76C556.31 490.77 535.02 512.06 522.31 538.08" stroke="#000000" stroke-width="4" stroke-linecap="round" stroke-linejoin="round" opacity="1" fill="none"></path></g></svg>